<?xml version="1.0" standalone="no"?>
<!DOCTYPE svg PUBLIC "-//W3C//DTD SVG 20010904//EN"
 "http://www.w3.org/TR/2001/REC-SVG-20010904/DTD/svg10.dtd">
<svg version="1.0" xmlns="http://www.w3.org/2000/svg"
 width="500.000000pt" height="500.000000pt" viewBox="0 0 500.000000 500.000000"
 preserveAspectRatio="xMidYMid meet">
<metadata>
Created by potrace 1.14, written by Peter Selinger 2001-2017
</metadata>
<g transform="translate(0.000000,500.000000) scale(0.100000,-0.100000)"
fill="#000000" stroke="none">
<path d="M2566 4683 c-1 -2 -35 -5 -75 -8 -92 -5 -200 -15 -226 -20 -11 -2
-54 -7 -95 -10 -79 -7 -113 -16 -170 -45 -32 -16 -83 -31 -120 -35 -27 -2
-177 -61 -295 -116 -27 -13 -52 -24 -55 -24 -3 -1 -31 -14 -62 -28 -32 -15
-88 -36 -124 -48 -37 -12 -78 -28 -92 -35 -23 -12 -27 -11 -39 6 -8 11 -11 25
-8 30 3 6 1 10 -4 10 -6 0 -11 -4 -11 -10 0 -18 -22 -10 -27 10 -5 17 -8 18
-24 6 -10 -7 -33 -33 -51 -57 -35 -49 -83 -100 -298 -319 -80 -81 -161 -166
-180 -189 -19 -23 -54 -63 -78 -89 -24 -26 -80 -94 -125 -152 -45 -57 -104
-127 -130 -155 -51 -53 -80 -98 -70 -109 4 -3 15 -6 25 -6 20 0 25 -26 6 -32
-8 -3 2 -19 24 -42 22 -22 39 -33 43 -26 3 5 12 7 18 3 7 -4 14 -8 17 -8 19
-3 50 -18 50 -25 0 -4 9 -10 20 -13 11 -3 20 -13 20 -23 0 -17 -46 -104 -60
-114 -10 -7 -42 -70 -35 -70 3 0 -2 -14 -11 -31 -12 -23 -17 -70 -21 -178 -8
-260 -9 -592 -1 -597 5 -3 6 -10 2 -15 -3 -5 0 -17 8 -26 11 -14 11 -16 -2 -8
-8 4 -12 5 -8 0 4 -4 2 -15 -4 -24 -10 -13 -10 -14 2 -3 16 13 31 16 28 5 -1
-5 2 -37 6 -72 11 -85 49 -194 123 -351 19 -41 39 -84 43 -95 55 -146 55 -145
118 -214 18 -20 45 -56 59 -81 15 -25 50 -77 79 -116 28 -39 59 -85 68 -102 9
-17 41 -56 71 -86 30 -30 55 -59 55 -65 0 -5 15 -17 34 -26 18 -9 66 -48 107
-88 81 -79 151 -132 216 -162 24 -11 43 -23 43 -28 0 -4 18 -14 40 -23 22 -9
40 -20 40 -25 0 -5 4 -9 9 -9 14 0 203 -91 221 -106 9 -7 31 -15 50 -17 33 -4
85 -23 137 -49 11 -6 26 -7 32 -4 6 4 23 0 38 -7 15 -8 38 -13 51 -11 13 2 33
-1 45 -8 12 -7 36 -13 52 -15 100 -8 125 -11 170 -19 56 -9 338 -8 430 2 33 3
92 13 130 21 39 9 90 19 115 23 58 11 190 54 227 73 26 15 93 33 155 43 14 3
43 -2 62 -10 31 -13 42 -13 81 -2 24 8 46 12 48 10 2 -2 20 3 40 11 20 8 51
15 70 15 18 0 52 9 75 20 22 11 59 20 82 20 26 0 51 8 70 21 18 14 38 20 54
17 20 -4 35 4 74 42 26 27 66 58 88 69 25 13 47 34 57 56 12 25 23 35 40 35
16 0 28 9 38 28 30 58 68 114 96 140 17 15 38 50 48 77 10 28 33 70 52 95 58
76 66 128 61 391 -1 33 6 60 24 90 14 24 28 61 32 81 10 57 63 103 133 116 64
12 171 43 190 54 6 5 26 32 45 60 30 46 35 62 36 120 1 42 -4 77 -13 95 -8 15
-15 34 -15 41 0 27 -31 72 -92 134 -87 88 -106 117 -106 164 0 21 -3 64 -6 94
-3 30 -8 80 -11 110 -2 30 -6 64 -9 75 -2 11 -7 45 -12 75 -4 30 -8 57 -9 60
-1 3 -4 19 -8 35 -4 17 -9 44 -11 62 -3 18 -7 36 -10 41 -6 11 -16 57 -21 102
-12 104 -17 128 -41 189 -15 36 -42 96 -60 132 -19 37 -34 69 -34 73 0 4 -7
23 -17 44 -9 20 -17 39 -18 42 -2 8 -45 92 -58 115 -34 59 -102 140 -190 228
-54 54 -102 109 -107 123 -5 13 -16 24 -25 24 -8 0 -43 28 -78 63 -74 73 -229
192 -294 225 -25 13 -55 32 -66 43 -12 10 -26 19 -33 19 -6 0 -29 8 -50 17
-22 9 -42 18 -46 19 -5 1 -9 2 -10 4 -2 1 -10 3 -18 5 -8 1 -49 19 -90 39 -41
20 -100 44 -130 53 -30 8 -64 20 -75 26 -11 6 -25 12 -31 13 -6 1 -49 11 -95
22 -46 11 -111 25 -144 31 -92 17 -104 19 -113 25 -22 13 -166 29 -176 19z"/>
<path d="M283 2005 c0 -8 4 -12 9 -9 5 3 6 10 3 15 -9 13 -12 11 -12 -6z"/>
<path d="M295 1981 c-3 -5 -2 -12 3 -15 5 -3 9 1 9 9 0 17 -3 19 -12 6z"/>
</g>
</svg>
